<svg xmlns="http://www.w3.org/2000/svg" viewBox="0 0 200 200">
  <rect width="200" height="200" fill="#C8DDE0"></rect>
  
  <path d="M30 200 Q30 158 100 155 Q170 158 170 200Z" fill="#5E9AA0"></path>
  
  <rect x="87" y="126" width="26" height="24" rx="10" fill="#D4A374"></rect>
  
  <ellipse cx="100" cy="97" rx="42" ry="46" fill="#D4A374"></ellipse>
  
  <path d="M58 95 Q58 48 100 40 Q142 48 142 95 L138 85 Q138 58 100 52 Q62 58 62 85Z" fill="#3A2B28"></path>
  
  <path d="M135 74 Q150 60 160 78 Q150 92 135 82Z" fill="#3A2B28"></path>
  
  <circle cx="137" cy="78" r="5" fill="#96C1C5"></circle>
  
  <path d="M58 78 Q62 54 100 50 Q116 52 126 62 Q110 56 100 58 Q74 60 68 82Z" fill="#3A2B28"></path>
  
  <path d="M78 87 Q84 83 90 86" stroke="#3A2B28" stroke-width="2.5" fill="none" stroke-linecap="round"></path>
  <path d="M110 86 Q116 83 122 87" stroke="#3A2B28" stroke-width="2.5" fill="none" stroke-linecap="round"></path>
  
  <ellipse cx="84" cy="97" rx="6" ry="7" fill="#3A2B28"></ellipse>
  <ellipse cx="116" cy="97" rx="6" ry="7" fill="#3A2B28"></ellipse>
  <circle cx="86" cy="94" r="2" fill="white"></circle>
  <circle cx="118" cy="94" r="2" fill="white"></circle>
  
  <path d="M97 110 Q100 115 103 110" stroke="#B8845A" stroke-width="1.5" fill="none" stroke-linecap="round"></path>
  
  <path d="M86 121 Q100 132 114 121" stroke="#8A5A38" stroke-width="2.2" fill="none" stroke-linecap="round"></path>
</svg>